<svg width="23" height="32" viewBox="0 0 23 32" fill="none" xmlns="http://www.w3.org/2000/svg">
<path d="M11.5003 6.11295C8.41143 6.11295 5.89752 8.71861 5.89752 11.9203C5.89752 15.122 8.41136 17.7277 11.5003 17.7277C14.5892 17.7277 17.103 15.1221 17.103 11.9203C17.103 8.71868 14.5892 6.11295 11.5003 6.11295ZM11.5003 15.8937C9.38599 15.8937 7.66697 14.1117 7.66697 11.9203C7.66697 9.72884 9.3861 7.94703 11.5003 7.94703C13.6144 7.94703 15.3336 9.72895 15.3336 11.9203C15.3336 14.1118 13.6144 15.8937 11.5003 15.8937ZM11.5003 0C5.15887 0 0 5.34731 0 11.9203C0 20.946 10.4476 31.312 10.8911 31.7494C11.0621 31.9175 11.2803 32 11.5 32C11.7182 32 11.9379 31.9159 12.1089 31.7494C12.5527 31.3123 23 20.9464 23 11.9203C23 5.34731 17.8417 0 11.5003 0ZM11.5003 29.7901C9.28132 27.4443 1.76945 18.9761 1.76945 11.9203C1.76945 6.35903 6.13493 1.83408 11.5003 1.83408C16.8656 1.83408 21.2311 6.35903 21.2311 11.9203C21.2311 18.9777 13.7192 27.4443 11.5003 29.7901Z" fill="#7A3FF2"/>
</svg>
